<?xml version="1.0" encoding="us-ascii" standalone="no"?><svg xmlns="http://www.w3.org/2000/svg" xmlns:xlink="http://www.w3.org/1999/xlink" contentStyleType="text/css" height="843.75px" preserveAspectRatio="none" style="width:1271px;height:843px;background:#FFFFFF;" version="1.1" viewBox="0 0 1271 843" width="1271.875px" zoomAndPan="magnify"><defs/><g><rect fill="none" height="21.6187" style="stroke:none;stroke-width:1.5625;" width="1221.0938" x="23.4375" y="17.1875"/><ellipse cx="221.0938" cy="62.2437" fill="#222222" rx="15.625" ry="15.625" style="stroke:#222222;stroke-width:1.5625;"/><rect fill="#F1F1F1" height="52.8687" rx="19.5313" ry="19.5313" style="stroke:#181818;stroke-width:0.78125;" width="251.5625" x="95.3125" y="277.356"/><text fill="#000000" font-family="sans-serif" font-size="17.1875" lengthAdjust="spacing" textLength="220.3125" x="110.9375" y="310.8231">(3) Click "Update Credentials"</text><rect fill="#F1F1F1" height="52.8687" rx="19.5313" ry="19.5313" style="stroke:#181818;stroke-width:0.78125;" width="376.5625" x="32.8125" y="361.4746"/><text fill="#000000" font-family="sans-serif" font-size="17.1875" lengthAdjust="spacing" textLength="345.3125" x="48.4375" y="394.9417">(4) Enter new API key/secret and click "Save"</text><line style="stroke:#000000;stroke-width:2.34375;" x1="23.4375" x2="23.4375" y1="17.1875" y2="826.0742"/><rect fill="#F1F1F1" height="52.8687" rx="19.5313" ry="19.5313" style="stroke:#181818;stroke-width:0.78125;" width="290.625" x="518.3594" y="109.1187"/><text fill="#000000" font-family="sans-serif" font-size="17.1875" lengthAdjust="spacing" textLength="259.375" x="533.9844" y="142.5858">(1) Open API / Credentials settings</text><rect fill="#F1F1F1" height="52.8687" rx="19.5313" ry="19.5313" style="stroke:#181818;stroke-width:0.78125;" width="348.4375" x="489.4531" y="193.2373"/><text fill="#000000" font-family="sans-serif" font-size="17.1875" lengthAdjust="spacing" textLength="317.1875" x="505.0781" y="226.7044">(2) Display current credentials (obscured)</text><rect fill="#F1F1F1" height="52.8687" rx="19.5313" ry="19.5313" style="stroke:#181818;stroke-width:0.78125;" width="415.625" x="455.8594" y="445.5933"/><text fill="#000000" font-family="sans-serif" font-size="17.1875" lengthAdjust="spacing" textLength="384.375" x="471.4844" y="479.0604">(5) Validate credentials (syntax &amp; optional test call)</text><polygon fill="#F1F1F1" points="640.2344,529.7119,687.1094,529.7119,705.8594,548.4619,687.1094,567.2119,640.2344,567.2119,621.4844,548.4619,640.2344,529.7119" style="stroke:#181818;stroke-width:0.78125;"/><text fill="#000000" font-family="sans-serif" font-size="17.1875" lengthAdjust="spacing" textLength="46.875" x="640.2344" y="555.4947">Valid?</text><text fill="#000000" font-family="sans-serif" font-size="17.1875" lengthAdjust="spacing" textLength="31.25" x="590.2344" y="544.6854">Yes</text><text fill="#000000" font-family="sans-serif" font-size="17.1875" lengthAdjust="spacing" textLength="20.3125" x="705.8594" y="544.6854">No</text><rect fill="#F1F1F1" height="52.8687" rx="19.5313" ry="19.5313" style="stroke:#181818;stroke-width:0.78125;" width="173.4375" x="425" y="682.5806"/><text fill="#000000" font-family="sans-serif" font-size="17.1875" lengthAdjust="spacing" textLength="142.1875" x="440.625" y="716.0477">(7) Show success</text><ellipse cx="511.7188" cy="783.8867" fill="none" rx="17.1875" ry="17.1875" style="stroke:#222222;stroke-width:1.5625;"/><ellipse cx="511.7188" cy="783.8867" fill="#222222" rx="9.375" ry="9.375" style="stroke:#222222;stroke-width:1.5625;"/><rect fill="#F1F1F1" height="52.8687" rx="19.5313" ry="19.5313" style="stroke:#181818;stroke-width:0.78125;" width="278.125" x="676.5625" y="598.4619"/><text fill="#000000" font-family="sans-serif" font-size="17.1875" lengthAdjust="spacing" textLength="246.875" x="692.1875" y="631.929">(5.1) Show error and allow retry</text><ellipse cx="815.625" cy="699.7681" fill="none" rx="17.1875" ry="17.1875" style="stroke:#222222;stroke-width:1.5625;"/><ellipse cx="815.625" cy="699.7681" fill="#222222" rx="9.375" ry="9.375" style="stroke:#222222;stroke-width:1.5625;"/><line style="stroke:#000000;stroke-width:2.34375;" x1="415.625" x2="415.625" y1="17.1875" y2="826.0742"/><rect fill="#F1F1F1" height="52.8687" rx="19.5313" ry="19.5313" style="stroke:#181818;stroke-width:0.78125;" width="267.1875" x="970.3125" y="598.4619"/><text fill="#000000" font-family="sans-serif" font-size="17.1875" lengthAdjust="spacing" textLength="235.9375" x="985.9375" y="631.929">(6) Store encrypted credentials</text><line style="stroke:#000000;stroke-width:2.34375;" x1="960.9375" x2="960.9375" y1="17.1875" y2="826.0742"/><line style="stroke:#000000;stroke-width:2.34375;" x1="1243.75" x2="1243.75" y1="17.1875" y2="826.0742"/><line style="stroke:#181818;stroke-width:1.5625;" x1="221.0938" x2="221.0938" y1="330.2246" y2="361.4746"/><polygon fill="#181818" points="214.8438,345.8496,221.0938,361.4746,227.3438,345.8496,221.0938,352.0996" style="stroke:#181818;stroke-width:1.5625;"/><line style="stroke:#181818;stroke-width:1.5625;" x1="663.6719" x2="663.6719" y1="161.9873" y2="193.2373"/><polygon fill="#181818" points="657.4219,177.6123,663.6719,193.2373,669.9219,177.6123,663.6719,183.8623" style="stroke:#181818;stroke-width:1.5625;"/><line style="stroke:#181818;stroke-width:1.5625;" x1="511.7188" x2="511.7188" y1="735.4492" y2="766.6992"/><polygon fill="#181818" points="505.4688,751.0742,511.7188,766.6992,517.9688,751.0742,511.7188,757.3242" style="stroke:#181818;stroke-width:1.5625;"/><line style="stroke:#181818;stroke-width:1.5625;" x1="815.625" x2="815.625" y1="651.3306" y2="682.5806"/><polygon fill="#181818" points="809.375,666.9556,815.625,682.5806,821.875,666.9556,815.625,673.2056" style="stroke:#181818;stroke-width:1.5625;"/><line style="stroke:#181818;stroke-width:1.5625;" x1="705.8594" x2="815.625" y1="548.4619" y2="548.4619"/><line style="stroke:#181818;stroke-width:1.5625;" x1="815.625" x2="815.625" y1="548.4619" y2="598.4619"/><polygon fill="#181818" points="809.375,582.8369,815.625,598.4619,821.875,582.8369,815.625,589.0869" style="stroke:#181818;stroke-width:1.5625;"/><line style="stroke:#181818;stroke-width:1.5625;" x1="663.6719" x2="663.6719" y1="498.4619" y2="529.7119"/><polygon fill="#181818" points="657.4219,514.0869,663.6719,529.7119,669.9219,514.0869,663.6719,520.3369" style="stroke:#181818;stroke-width:1.5625;"/><line style="stroke:#181818;stroke-width:1.5625;" x1="221.0938" x2="221.0938" y1="77.8687" y2="85.6812"/><line style="stroke:#181818;stroke-width:1.5625;" x1="221.0938" x2="663.6719" y1="85.6812" y2="85.6812"/><line style="stroke:#181818;stroke-width:1.5625;" x1="663.6719" x2="663.6719" y1="85.6812" y2="109.1187"/><polygon fill="#181818" points="657.4219,93.4937,663.6719,109.1187,669.9219,93.4937,663.6719,99.7437" style="stroke:#181818;stroke-width:1.5625;"/><line style="stroke:#181818;stroke-width:1.5625;" x1="663.6719" x2="663.6719" y1="246.106" y2="253.9185"/><line style="stroke:#181818;stroke-width:1.5625;" x1="663.6719" x2="221.0938" y1="253.9185" y2="253.9185"/><line style="stroke:#181818;stroke-width:1.5625;" x1="221.0938" x2="221.0938" y1="253.9185" y2="277.356"/><polygon fill="#181818" points="214.8438,261.731,221.0938,277.356,227.3438,261.731,221.0938,267.981" style="stroke:#181818;stroke-width:1.5625;"/><line style="stroke:#181818;stroke-width:1.5625;" x1="221.0938" x2="221.0938" y1="414.3433" y2="422.1558"/><line style="stroke:#181818;stroke-width:1.5625;" x1="221.0938" x2="663.6719" y1="422.1558" y2="422.1558"/><line style="stroke:#181818;stroke-width:1.5625;" x1="663.6719" x2="663.6719" y1="422.1558" y2="445.5933"/><polygon fill="#181818" points="657.4219,429.9683,663.6719,445.5933,669.9219,429.9683,663.6719,436.2183" style="stroke:#181818;stroke-width:1.5625;"/><line style="stroke:#181818;stroke-width:1.5625;" x1="1103.9063" x2="1103.9063" y1="651.3306" y2="659.1431"/><line style="stroke:#181818;stroke-width:1.5625;" x1="1103.9063" x2="511.7188" y1="659.1431" y2="659.1431"/><line style="stroke:#181818;stroke-width:1.5625;" x1="511.7188" x2="511.7188" y1="659.1431" y2="682.5806"/><polygon fill="#181818" points="505.4688,666.9556,511.7188,682.5806,517.9688,666.9556,511.7188,673.2056" style="stroke:#181818;stroke-width:1.5625;"/><line style="stroke:#181818;stroke-width:1.5625;" x1="621.4844" x2="602.7344" y1="548.4619" y2="548.4619"/><line style="stroke:#181818;stroke-width:1.5625;" x1="602.7344" x2="602.7344" y1="548.4619" y2="576.5869"/><line style="stroke:#181818;stroke-width:1.5625;" x1="602.7344" x2="1103.9063" y1="576.5869" y2="576.5869"/><line style="stroke:#181818;stroke-width:1.5625;" x1="1103.9063" x2="1103.9063" y1="576.5869" y2="598.4619"/><polygon fill="#181818" points="1097.6563,582.8369,1103.9063,598.4619,1110.1563,582.8369,1103.9063,589.0869" style="stroke:#181818;stroke-width:1.5625;"/><text fill="#000000" font-family="sans-serif" font-size="17.1875" lengthAdjust="spacing" textLength="35.9375" x="201.5625" y="35.0296">User</text><text fill="#000000" font-family="sans-serif" font-size="17.1875" lengthAdjust="spacing" textLength="56.25" x="660.1563" y="35.0296">System</text><text fill="#000000" font-family="sans-serif" font-size="17.1875" lengthAdjust="spacing" textLength="71.875" x="1066.4063" y="35.0296">Database</text><!--SRC=[RL7BJiD03BpdAwmUKFO212X8pG6X0X877b80YQERTUcgOJTQkuIWV3nEeIL57ErvU4RcfVCrHdm3Mpl8neS9RpTOYdjtqZwWjSw_mka_s2t6L-TteHX3yxXmvT8JCsG3o0UXZTl9OCyBjA7fjtEic0Q8fJckAhaENWhtIP1bIT8zCSKkOS4eEXKj2xrroIJD3DpNvE7YuGOEO1h9aXUdZi0aelQSA-l8mANZki8MobMCIe5oG4t3Z7LFrkJRKvFqsC2qqaemUgej2WtTHxthYO4hBnJ1KxCEiAJsW4cT1T1RAB_L1RxJADz9FJRmZ9LRk-u4uTOBVi0UX5fSy5Y146jOh2hDvkQGhdNd1cIXhTCNOfC0T9SeE4EcJeT9UcgWa109o9UnhONiy4hU2pPPUlgPqXUX0LwLfRwlnrb2dP3-1TAxOFuAnllPZuJqyN5TLXFghDLZ-slWhPidNm00]--></g></svg>