<?xml version="1.0" standalone="no"?>
<!DOCTYPE svg PUBLIC "-//W3C//DTD SVG 20010904//EN"
 "http://www.w3.org/TR/2001/REC-SVG-20010904/DTD/svg10.dtd">
<svg version="1.0" xmlns="http://www.w3.org/2000/svg"
 width="1024.000000pt" height="1024.000000pt" viewBox="0 0 1024.000000 1024.000000"
 preserveAspectRatio="xMidYMid meet">

<g transform="translate(0.000000,1024.000000) scale(0.100000,-0.100000)"
fill="#000000" stroke="none">
<path d="M4770 10219 c-311 -25 -500 -53 -775 -115 -300 -67 -694 -201 -978
-331 -972 -448 -1761 -1161 -2314 -2093 -77 -130 -213 -395 -262 -510 -264
-623 -385 -1147 -431 -1875 -16 -235 -4 -450 44 -825 1 -8 6 -48 10 -88 5 -40
13 -75 17 -78 5 -3 9 -23 9 -45 0 -21 5 -39 10 -39 12 0 4 63 -12 92 -7 15 -5
17 14 15 13 -1 26 -6 29 -11 4 -5 15 0 24 12 10 11 24 18 32 15 11 -4 10 -8
-4 -19 -10 -7 -13 -14 -7 -14 6 0 26 14 44 30 18 17 38 30 44 30 6 0 11 16 12
35 0 18 -4 31 -9 28 -4 -3 -3 4 5 16 17 28 26 27 20 -4 -3 -20 0 -25 17 -25
30 0 36 3 34 19 -1 9 2 10 9 3 14 -14 1 -65 -14 -56 -7 5 -8 3 -3 -5 5 -9 12
-7 26 8 18 19 18 25 3 168 -26 248 -29 319 -27 553 2 246 22 540 48 700 32
199 52 302 86 440 35 148 97 362 119 415 4 11 22 61 40 110 33 92 40 108 82
205 14 30 33 75 44 100 81 191 238 472 378 680 322 479 680 854 1151 1206 133
99 388 270 445 297 8 5 24 13 35 20 63 39 267 143 375 193 490 223 956 350
1520 411 121 13 247 18 477 18 270 0 310 2 300 14 -9 11 -9 13 -1 8 8 -5 11 4
10 26 -2 27 7 41 57 90 33 32 57 61 53 64 -3 3 -6 1 -6 -6 0 -8 -7 -11 -15 -7
-9 3 -15 0 -15 -8 0 -7 -11 -19 -25 -26 -14 -7 -25 -20 -25 -27 0 -8 -5 -11
-10 -8 -6 3 -13 -1 -16 -9 -3 -9 -15 -16 -25 -16 -21 0 -25 15 -7 26 7 5 8 3
3 -7 -13 -22 21 8 73 63 26 26 50 44 58 41 8 -3 14 0 14 7 0 6 4 9 9 6 5 -4 7
3 4 14 -3 12 -20 27 -37 35 -31 13 -31 13 29 16 l60 2 -80 8 c-347 34 -444 35
-775 8z m-4520 -5693 c0 -3 -4 -8 -10 -11 -5 -3 -10 -1 -10 4 0 6 5 11 10 11
6 0 10 -2 10 -4z m-110 -110 c0 -3 -4 -8 -10 -11 -5 -3 -10 -1 -10 4 0 6 5 11
10 11 6 0 10 -2 10 -4z m50 -6 c0 -5 -5 -10 -11 -10 -5 0 -7 5 -4 10 3 6 8 10
11 10 2 0 4 -4 4 -10z m60 -10 c-6 -11 -18 -20 -26 -20 -10 0 -14 -6 -10 -15
3 -9 0 -15 -8 -15 -8 0 -16 7 -20 15 -3 9 0 15 9 15 8 0 20 9 27 20 7 11 19
20 26 20 10 0 10 -5 2 -20z m-93 -35 c-8 -9 -18 -10 -29 -4 -11 6 -18 6 -18 0
0 -5 6 -12 13 -14 6 -3 2 -6 -9 -6 -12 -1 -25 6 -28 15 -3 8 -2 12 3 9 5 -3
12 -1 16 4 3 6 12 8 20 4 8 -3 15 0 15 6 0 6 7 8 15 5 11 -5 12 -9 2 -19z"/>
<path d="M5658 10193 c12 -2 30 -2 40 0 9 3 -1 5 -23 4 -22 0 -30 -2 -17 -4z"/>
<path d="M5743 10183 c9 -2 23 -2 30 0 6 3 -1 5 -18 5 -16 0 -22 -2 -12 -5z"/>
<path d="M5791 10176 c2 -2 27 -6 54 -9 32 -4 43 -3 30 3 -19 8 -93 14 -84 6z"/>
<path d="M5466 9943 c-6 -14 -5 -15 5 -6 7 7 10 15 7 18 -3 3 -9 -2 -12 -12z"/>
<path d="M4708 8193 c7 -3 16 -2 19 1 4 3 -2 6 -13 5 -11 0 -14 -3 -6 -6z"/>
<path d="M4658 8183 c7 -3 16 -2 19 1 4 3 -2 6 -13 5 -11 0 -14 -3 -6 -6z"/>
<path d="M4610 8170 c0 -5 7 -10 15 -10 8 0 15 5 15 10 0 6 -7 10 -15 10 -8 0
-15 -4 -15 -10z"/>
<path d="M4290 8113 c-347 -58 -603 -124 -815 -210 -302 -123 -516 -280 -637
-468 -49 -76 -108 -195 -108 -219 0 -8 -4 -17 -9 -20 -4 -3 -14 -27 -21 -53
-6 -27 -16 -57 -21 -68 -5 -11 -23 -74 -40 -140 -22 -85 -29 -131 -25 -159 5
-27 3 -42 -6 -48 -10 -6 -10 -8 1 -8 12 0 12 -2 -1 -12 -23 -19 -39 -141 -42
-323 -2 -88 -1 -129 1 -92 2 42 8 65 14 61 5 -3 17 0 25 7 12 10 17 10 27 -1
10 -10 9 -12 -5 -7 -10 3 -19 0 -22 -9 -9 -23 -8 -24 18 -22 14 1 22 6 19 11
-2 4 1 15 9 24 7 9 8 14 2 10 -7 -4 -17 0 -24 8 -15 18 1 21 31 5 11 -6 19 -7
19 -1 0 5 10 7 23 4 16 -4 19 -2 8 5 -12 9 -12 13 2 26 8 9 23 13 31 10 9 -3
16 -1 16 5 0 7 -7 14 -15 17 -14 6 -14 8 1 19 18 12 13 14 -38 16 -14 0 -15 3
-5 14 6 7 14 9 15 4 7 -17 22 -9 22 12 0 11 5 17 10 14 6 -3 10 -1 10 4 0 17
21 13 36 -6 13 -17 13 -17 14 1 0 14 6 17 25 14 14 -3 28 -1 32 5 3 6 1 7 -5
3 -16 -10 -14 15 3 37 10 14 20 17 37 12 23 -8 23 -8 4 14 -17 18 -17 21 -3
15 10 -3 17 -1 17 6 0 6 4 9 9 6 5 -3 7 -15 4 -26 -3 -11 0 -20 6 -20 10 0 15
13 12 32 0 4 6 5 15 1 13 -5 13 -7 2 -14 -10 -7 -11 -9 0 -9 7 0 10 -5 6 -12
-4 -6 -3 -8 4 -5 11 8 11 25 -2 45 -5 9 -2 20 8 30 14 14 20 15 39 4 21 -12
21 -12 -2 8 -13 11 -20 20 -15 20 4 0 3 5 -3 11 -14 14 -6 39 11 39 7 0 22 11
34 23 17 17 18 24 8 24 -8 0 -14 -3 -13 -6 1 -3 -2 -7 -8 -8 -5 -2 -10 2 -9 7
1 6 2 17 3 26 0 8 5 13 10 10 5 -4 12 0 14 6 3 8 6 6 6 -4 1 -22 19 -24 27 -3
4 8 14 15 23 15 9 0 22 15 30 33 22 50 99 166 137 206 18 20 34 39 34 44 0 4
5 7 11 7 6 0 25 10 42 23 18 12 42 27 54 34 12 6 35 18 50 27 53 29 203 96
215 96 7 0 26 7 42 15 15 8 32 13 37 10 4 -3 16 -1 26 4 10 6 65 22 122 36 58
14 107 28 110 31 3 4 -3 4 -14 1 -72 -20 -138 -28 -148 -18 -6 6 -18 11 -26
11 -13 -1 -12 -4 3 -15 19 -14 19 -15 -7 -16 -39 -2 -45 -3 -53 -11 -11 -12
-56 -10 -49 2 3 5 0 7 -9 4 -11 -4 -13 0 -9 15 3 12 10 21 17 20 23 -3 33 1
33 15 0 11 -5 13 -19 5 -13 -7 -18 -6 -18 3 0 9 -3 9 -10 -2 -5 -8 -10 -11
-10 -6 0 5 -9 1 -20 -9 -11 -10 -23 -15 -27 -12 -11 12 29 47 54 47 12 0 22 3
22 8 -3 20 3 21 22 3 17 -15 24 -17 34 -8 10 9 10 15 1 26 -9 12 -8 13 4 6 13
-8 13 -7 0 10 -14 17 -15 17 -20 -11 l-6 -29 -17 33 c-10 18 -22 30 -27 27 -5
-3 -11 -1 -14 3 -4 8 58 72 70 72 11 0 2 -24 -13 -35 -13 -9 -13 -14 -3 -20 9
-5 11 -4 6 3 -6 11 5 16 26 13 4 0 3 10 -2 24 -7 20 -6 25 5 25 9 0 12 -6 8
-16 -4 -11 -2 -15 7 -12 7 2 14 12 16 21 2 13 -6 17 -34 17 -43 -1 -59 -11
-94 -63 -14 -21 -29 -34 -32 -28 -7 11 13 40 52 74 12 11 22 25 22 30 0 6 -8
3 -19 -7 -16 -15 -19 -15 -31 -1 -8 10 -9 15 -1 15 6 0 11 4 11 9 0 5 -12 8
-27 6 -27 -4 -27 -4 -5 7 12 6 22 15 22 19 0 5 11 4 24 -1 15 -5 27 -5 35 3 6
6 11 7 11 1 0 -5 -5 -15 -11 -21 -8 -8 -5 -14 10 -22 26 -14 61 1 61 27 -1 14
-4 13 -19 -5 -11 -13 -22 -23 -25 -23 -13 0 -4 21 19 44 14 14 25 32 25 41 0
8 6 15 13 15 7 0 18 9 25 21 12 19 11 19 -7 9 -31 -16 -57 5 -58 47 -1 31 0
32 13 16 7 -10 14 -13 14 -6 0 6 7 19 16 27 8 9 11 16 5 16 -6 0 -8 7 -5 15 4
8 0 22 -7 31 -7 8 -8 14 -3 13 24 -4 32 2 26 23 l-5 21 21 -21 c23 -23 29 -38
12 -27 -5 3 -17 2 -25 -2 -10 -6 -2 -9 25 -10 35 -2 38 0 26 12 -8 8 -11 25
-8 42 3 15 7 22 9 16 7 -21 20 -15 27 12 4 14 11 23 17 19 6 -3 16 1 22 10 8
10 17 13 26 7 11 -7 9 -10 -8 -16 -11 -3 -21 -11 -21 -16 0 -6 -5 -7 -12 -3
-6 4 -8 3 -5 -4 7 -11 40 -10 35 1 -2 3 6 13 17 21 17 14 18 17 5 26 -8 5 -10
10 -5 10 6 0 16 -5 22 -11 7 -7 12 -4 16 10 3 12 1 19 -4 15 -5 -3 -9 -1 -9 5
0 13 100 33 142 29 25 -2 34 -8 36 -25 2 -13 10 -23 18 -23 9 0 12 5 8 12 -4
7 -3 8 4 4 7 -4 12 -14 12 -22 0 -11 4 -13 16 -6 9 5 25 7 35 5 17 -5 19 1 19
51 0 31 -1 55 -2 55 -2 -1 -14 -4 -28 -6z m-455 -182 c3 -5 2 -12 -3 -15 -5
-3 -9 1 -9 9 0 17 3 19 12 6z m-62 -86 c-3 -9 -8 -14 -10 -11 -3 3 -2 9 2 15
9 16 15 13 8 -4z m52 -6 c-3 -12 -7 -24 -11 -28 -4 -3 -4 2 -1 12 4 9 2 17 -3
17 -6 0 -10 5 -10 10 0 6 6 10 14 10 10 0 13 -8 11 -21z m-75 -72 c0 -2 -10
-12 -22 -23 l-23 -19 19 23 c18 21 26 27 26 19z m25 -37 c-11 -17 5 -32 21
-19 11 9 14 8 14 -4 0 -8 -7 -20 -16 -27 -13 -11 -19 -10 -37 10 -12 12 -16
19 -8 15 11 -6 13 -4 8 8 -5 13 2 21 21 26 2 1 0 -3 -3 -9z m-117 -296 c-3
-14 -5 -12 -10 9 -3 19 -2 25 4 19 6 -6 8 -18 6 -28z m62 32 c0 -2 -8 -10 -17
-17 -16 -13 -17 -12 -4 4 13 16 21 21 21 13z m-110 -21 c-7 -8 -17 -15 -22
-15 -6 0 -5 7 2 15 7 8 17 15 22 15 6 0 5 -7 -2 -15z m-90 -29 c0 -3 -4 -8
-10 -11 -5 -3 -10 -1 -10 4 0 6 5 11 10 11 6 0 10 -2 10 -4z m86 -42 c-11 -8
-25 -14 -30 -14 -8 0 -8 3 0 8 6 4 14 16 18 26 5 15 9 17 19 7 9 -10 8 -15 -7
-27z m91 11 c0 -8 -4 -12 -9 -9 -5 3 -6 10 -3 15 9 13 12 11 12 -6z m-10 -31
c7 -7 18 -14 25 -17 19 -6 3 -19 -26 -21 -14 0 -26 -4 -26 -8 0 -5 -7 -8 -16
-8 -14 0 -14 2 1 16 13 14 14 18 3 25 -7 5 -15 4 -17 -2 -2 -8 -6 -7 -11 1
-20 32 37 44 67 14z m-92 -34 c3 -5 -1 -10 -10 -10 -9 0 -13 5 -10 10 3 6 8
10 10 10 2 0 7 -4 10 -10z m-215 -132 c0 -4 -4 -8 -9 -8 -6 0 -12 4 -15 8 -3
5 1 9 9 9 8 0 15 -4 15 -9z m-414 -523 c-3 -20 -16 -31 -16 -13 0 13 8 28 16
28 1 0 1 -7 0 -15z m-201 -64 c3 -5 2 -12 -3 -15 -5 -3 -9 1 -9 9 0 17 3 19
12 6z m70 -41 c-4 -6 -10 -8 -15 -5 -5 3 -11 1 -15 -5 -4 -6 -11 -7 -17 -4 -6
4 -5 10 3 15 19 12 52 11 44 -1z m-190 -140 c3 -5 1 -10 -4 -10 -6 0 -11 5
-11 10 0 6 2 10 4 10 3 0 8 -4 11 -10z m40 1 c3 -5 1 -12 -5 -16 -5 -3 -10 1
-10 9 0 18 6 21 15 7z"/>
<path d="M4029 7953 c-13 -16 -12 -17 4 -4 16 13 21 21 13 21 -2 0 -10 -8 -17
-17z"/>
<path d="M4453 7915 c0 -33 2 -45 4 -27 2 18 2 45 0 60 -2 15 -4 0 -4 -33z"/>
<path d="M3918 7863 c6 -2 18 -2 25 0 6 3 1 5 -13 5 -14 0 -19 -2 -12 -5z"/>
<path d="M2405 7825 c-5 -2 -27 -6 -48 -10 -86 -14 -151 -124 -127 -215 12
-44 60 -105 91 -115 18 -6 19 -17 19 -184 0 -98 3 -212 6 -253 l7 -75 36 13
c20 7 46 13 59 14 14 0 22 6 23 18 0 9 0 114 -1 233 l-1 216 40 27 c88 61 103
184 34 267 -32 37 -109 73 -138 64z"/>
<path d="M3893 7775 c0 -8 4 -12 9 -9 5 3 6 10 3 15 -9 13 -12 11 -12 -6z"/>
<path d="M3825 7766 c-11 -8 -14 -16 -8 -19 6 -4 18 0 28 7 11 8 14 16 8 19
-6 4 -18 0 -28 -7z"/>
<path d="M4085 7410 c-3 -5 -1 -10 4 -10 6 0 11 5 11 10 0 6 -2 10 -4 10 -3 0
-8 -4 -11 -10z"/>
<path d="M2450 6860 c-8 -5 -34 -14 -57 -20 -57 -14 -153 -89 -196 -152 -71
-104 -80 -145 -85 -406 -5 -267 5 -367 44 -447 26 -53 42 -69 41 -42 -1 37 4
57 13 52 14 -9 71 17 66 30 -5 16 13 45 29 45 8 0 20 9 28 20 8 11 16 18 18
16 2 -3 11 8 20 23 l16 27 -36 -2 c-32 -1 -36 1 -36 22 0 13 5 24 12 24 6 0 9
-9 6 -20 -4 -13 0 -20 9 -20 22 0 29 12 17 27 -9 9 -8 13 0 13 6 0 11 -4 11
-10 0 -5 9 -14 19 -19 15 -8 20 -7 25 5 5 12 2 15 -11 10 -17 -6 -17 -5 0 8
14 11 15 15 5 20 -10 5 -10 7 0 12 9 4 12 46 12 158 0 83 4 187 10 231 5 44
12 109 15 145 3 36 8 79 11 97 3 17 8 46 10 65 9 66 10 74 18 86 8 14 -12 15
-34 2z m-159 -823 c-10 -9 -11 -8 -5 6 3 10 9 15 12 12 3 -3 0 -11 -7 -18z
m33 -64 c3 -7 2 -13 -3 -13 -5 0 -14 6 -20 13 -8 10 -7 14 4 14 8 0 16 -6 19
-14z"/>
<path d="M3101 6804 c0 -11 3 -14 6 -6 3 7 2 16 -1 19 -3 4 -6 -2 -5 -13z"/>
<path d="M3010 6710 c8 -5 20 -10 25 -10 6 0 3 5 -5 10 -8 5 -19 10 -25 10 -5
0 -3 -5 5 -10z"/>
<path d="M3056 6651 c-4 -7 -5 -15 -2 -18 9 -9 19 4 14 18 -4 11 -6 11 -12 0z"/>
<path d="M2883 6561 c1 -15 4 -17 14 -9 17 14 16 28 -1 28 -8 0 -14 -9 -13
-19z"/>
<path d="M2825 6510 c-3 -5 -2 -10 4 -10 5 0 13 5 16 10 3 6 2 10 -4 10 -5 0
-13 -4 -16 -10z"/>
<path d="M2595 6300 c-11 -5 -14 -9 -6 -9 11 -1 11 -4 1 -16 -8 -9 -9 -15 -2
-15 12 0 25 18 28 38 1 6 2 12 1 11 -1 0 -11 -4 -22 -9z"/>
<path d="M2630 6300 c0 -5 5 -10 11 -10 5 0 7 5 4 10 -3 6 -8 10 -11 10 -2 0
-4 -4 -4 -10z"/>
<path d="M2424 5796 c-3 -8 3 -23 15 -35 19 -19 20 -19 18 0 -1 10 -5 19 -10
19 -5 0 -7 7 -3 15 3 8 1 15 -5 15 -5 0 -12 -6 -15 -14z"/>
<path d="M2278 5673 c7 -3 16 -2 19 1 4 3 -2 6 -13 5 -11 0 -14 -3 -6 -6z"/>
<path d="M2314 5672 c3 -5 0 -12 -6 -15 -7 -2 -10 -7 -7 -11 3 -4 12 0 18 8 9
11 9 16 0 22 -7 4 -9 3 -5 -4z"/>
<path d="M2341 5634 c0 -11 3 -14 6 -6 3 7 2 16 -1 19 -3 4 -6 -2 -5 -13z"/>
<path d="M300 4399 c0 -5 5 -7 10 -4 6 3 10 8 10 11 0 2 -4 4 -10 4 -5 0 -10
-5 -10 -11z"/>
<path d="M375 4359 c-4 -6 -5 -12 -2 -15 2 -3 7 2 10 11 7 17 1 20 -8 4z"/>
<path d="M258 4354 c-4 -3 -4 -12 -2 -19 3 -7 -3 -15 -13 -18 -14 -4 -15 -5
-2 -6 22 -1 45 27 32 40 -5 5 -12 7 -15 3z"/>
<path d="M125 4290 c3 -5 8 -10 11 -10 2 0 4 5 4 10 0 6 -5 10 -11 10 -5 0 -7
-4 -4 -10z"/>
<path d="M207 4271 c-3 -14 -1 -18 9 -14 8 3 14 11 14 19 0 21 -17 17 -23 -5z"/>
<path d="M100 4194 c0 -8 5 -12 10 -9 6 4 8 11 5 16 -9 14 -15 11 -15 -7z"/>
<path d="M116 4138 c3 -4 11 -5 19 -1 21 7 19 12 -4 10 -11 0 -18 -5 -15 -9z"/>
<path d="M420 4099 c0 -5 5 -7 10 -4 6 3 10 8 10 11 0 2 -4 4 -10 4 -5 0 -10
-5 -10 -11z"/>
<path d="M3505 3380 c-182 -29 -295 -138 -295 -285 0 -89 15 -131 66 -181 52
-50 109 -74 287 -119 135 -34 175 -55 189 -97 23 -68 -46 -117 -167 -118 -89
0 -171 20 -257 64 -38 19 -70 31 -72 27 -7 -10 -66 -161 -66 -167 0 -3 25 -16
55 -30 191 -88 433 -96 584 -20 59 31 123 101 139 154 17 58 14 141 -7 187
-41 89 -105 126 -310 179 -73 19 -149 43 -169 54 -64 33 -68 102 -9 146 25 19
42 21 145 21 115 -1 135 -4 244 -50 13 -5 22 9 47 74 17 44 31 83 31 85 0 10
-64 39 -126 56 -74 21 -238 32 -309 20z"/>
<path d="M4380 3383 c-100 -15 -171 -46 -232 -101 -57 -51 -81 -110 -81 -197
0 -154 80 -225 318 -280 136 -32 163 -42 198 -73 52 -49 24 -119 -58 -142 -95
-27 -276 6 -368 66 -22 14 -40 24 -41 22 -2 -2 -18 -41 -36 -87 -39 -99 -42
-93 79 -140 194 -74 430 -64 564 25 81 54 125 155 112 259 -16 128 -102 186
-381 254 -50 13 -105 31 -122 41 -55 34 -54 103 1 144 25 18 42 21 140 21 92
-1 123 -5 172 -23 33 -13 67 -25 75 -28 20 -7 77 142 64 164 -31 48 -280 95
-404 75z"/>
<path d="M5665 3380 c-136 -22 -256 -105 -283 -196 -19 -66 -15 -161 9 -211
41 -84 116 -125 321 -175 72 -17 144 -41 162 -53 39 -26 54 -65 38 -99 -20
-44 -57 -60 -151 -64 -104 -5 -186 13 -278 62 -35 19 -65 31 -67 27 -3 -4 -16
-36 -29 -71 -14 -36 -28 -73 -32 -82 -16 -40 181 -106 345 -115 183 -10 333
44 399 144 37 55 45 92 39 178 -8 128 -84 188 -310 245 -73 18 -147 39 -165
47 -38 15 -73 58 -73 88 0 33 35 72 78 86 63 21 189 14 273 -16 41 -14 81 -28
89 -31 11 -4 22 15 43 74 15 44 27 82 27 86 0 10 -62 38 -128 57 -75 21 -235
31 -307 19z"/>
<path d="M7476 3379 c-225 -37 -382 -191 -417 -408 -39 -235 96 -458 324 -538
201 -70 434 -23 575 116 126 124 169 291 122 475 -63 248 -325 402 -604 355z
m229 -213 c104 -52 160 -150 159 -281 -1 -119 -55 -209 -159 -263 -41 -21 -64
-26 -130 -26 -68 -1 -88 3 -130 26 -125 66 -187 203 -155 339 28 119 95 192
210 230 46 16 147 3 205 -25z"/>
<path d="M2493 3333 c-23 -58 -363 -823 -384 -867 -10 -22 -19 -41 -19 -43 0
-2 52 -3 115 -3 115 0 116 0 125 26 6 15 24 60 41 100 l31 74 220 -2 221 -3
37 -93 c21 -51 40 -95 42 -98 3 -2 57 -3 121 -2 l116 3 -194 440 c-107 242
-202 455 -210 473 l-15 32 -115 0 -116 0 -16 -37z m202 -348 c37 -94 69 -176
72 -182 4 -10 -28 -13 -142 -13 -136 0 -147 1 -141 18 27 72 141 351 142 349
2 -1 33 -79 69 -172z"/>
<path d="M4980 2895 l0 -475 115 0 115 0 0 475 0 475 -115 0 -115 0 0 -475z"/>
<path d="M6167 3363 c-4 -3 -7 -44 -7 -89 l0 -83 158 -3 157 -3 0 -383 0 -382
112 0 113 0 2 383 3 382 158 3 157 3 0 89 0 90 -423 0 c-233 0 -427 -3 -430
-7z"/>
<path d="M5330 1895 c0 -248 1 -255 20 -255 19 0 20 7 20 114 0 101 2 117 23
147 29 43 60 59 118 59 35 0 50 -5 66 -22 38 -42 43 -65 43 -182 0 -111 1
-116 21 -116 20 0 20 4 17 134 -3 119 -5 137 -23 155 -11 12 -28 30 -39 40
-38 41 -134 38 -185 -5 -16 -13 -32 -24 -35 -24 -3 0 -6 47 -6 105 0 98 -1
105 -20 105 -19 0 -20 -7 -20 -255z"/>
<path d="M4959 2106 c-103 -29 -169 -119 -169 -228 0 -32 6 -73 13 -91 54
-128 218 -189 342 -126 27 13 51 30 53 37 6 19 -41 15 -64 -6 -25 -23 -145
-23 -190 1 -77 40 -121 129 -109 218 12 87 107 168 197 169 43 0 130 -27 140
-44 5 -8 10 -8 18 0 9 9 0 20 -36 45 -56 38 -121 46 -195 25z"/>
<path d="M3955 1952 c-38 -86 -69 -163 -69 -169 1 -7 -2 -10 -7 -7 -5 3 -9 0
-9 -5 0 -6 -13 -38 -29 -71 l-29 -60 23 0 c19 0 27 9 41 48 28 75 21 72 179
72 l143 0 21 -49 c11 -27 21 -54 21 -60 0 -6 11 -11 25 -11 17 0 23 4 19 14
-3 8 -13 12 -22 9 -13 -4 -14 -3 -4 5 11 7 10 16 -7 48 -12 21 -21 43 -21 49
0 14 -94 209 -102 213 -5 2 -8 13 -8 23 0 13 -4 18 -12 13 -6 -4 -8 -3 -5 3 4
6 -1 29 -10 52 -13 33 -21 41 -42 41 -24 0 -32 -13 -96 -158z m133 46 c39 -79
83 -190 78 -195 -2 -3 -34 -6 -71 -9 -38 -2 -74 -9 -81 -15 -9 -7 -19 -7 -31
-1 -10 6 -24 7 -33 2 -23 -12 -24 26 -1 75 10 22 35 77 56 123 21 45 41 82 45
82 4 0 21 -28 38 -62z"/>
<path d="M4402 1875 c0 -224 1 -235 19 -235 18 0 19 11 19 235 0 225 -1 235
-19 235 -18 0 -19 -10 -19 -235z"/>
<path d="M6250 2035 c0 -45 0 -45 -35 -45 -25 0 -35 -4 -35 -16 0 -11 6 -14
23 -9 12 4 27 8 32 9 6 0 12 -54 15 -139 6 -140 14 -177 46 -189 20 -8 88 -8
108 0 17 7 22 34 6 34 -5 0 -10 -4 -10 -8 0 -5 -10 -8 -22 -6 -13 1 -28 3 -34
3 -6 1 -22 12 -35 25 -23 23 -24 28 -21 145 l3 121 55 0 c40 0 54 4 54 14 0
11 -15 16 -52 18 l-53 3 -3 43 c-3 34 -7 42 -23 42 -16 0 -19 -7 -19 -45z"/>
<path d="M5875 1991 c-31 -8 -75 -29 -75 -36 0 -2 2 -10 6 -18 4 -12 11 -11
42 4 21 11 57 19 85 19 40 0 53 -5 78 -29 33 -33 40 -85 13 -95 -9 -3 -49 -6
-89 -6 -41 0 -85 -4 -100 -10 -24 -9 -55 -61 -55 -92 0 -24 55 -78 89 -88 41
-12 115 2 142 26 17 16 22 16 29 4 6 -8 10 -18 10 -22 0 -5 7 -8 15 -8 13 0
15 21 15 129 0 136 -8 177 -37 188 -10 4 -22 12 -28 19 -13 16 -100 25 -140
15z m163 -227 c3 -36 -1 -45 -28 -68 -30 -25 -51 -30 -115 -26 -77 4 -88 105
-15 133 8 3 47 5 85 4 l70 -2 3 -41z"/>
</g>
</svg>
